<svg xmlns="http://www.w3.org/2000/svg" width="823.5" height="152.877" viewBox="0 0 823.5 152.877">
  <g id="Group_16" data-name="Group 16" transform="translate(-271 -337.5)">
    <path id="ICON" d="M87.313,113.365,67.779,80.173,50.82,108.991l-2.574,4.374H87.313M28.22,55.826,45.179,27.008l2.574-4.374H8.686L28.22,55.826M113,128h0Zm0,0H2.82l25.4-43.159,9.871,16.77L67.779,51.161ZM28.22,84.839-17,8H93.179l-25.4,43.161L57.909,34.39,28.22,84.838h0Z" transform="translate(288 330)" fill="#d6c924"/>
    <path id="INMMERCE" d="M-2277.313-2046.737c-10.283-11.009-15.425-24.609-15.425-44.764,0-18.865,4.83-32.023,14.49-43.445q14.49-17.055,38.719-17.055a47.157,47.157,0,0,1,16.049,2.946v32.2q-7.245-7.21-14.88-7.21a17.712,17.712,0,0,0-15.581,8.449q-5.609,8.528-5.609,23.568a55.089,55.089,0,0,0,1.4,13.024,30.74,30.74,0,0,0,4.013,9.69,18.106,18.106,0,0,0,6.427,6.047,17.843,17.843,0,0,0,8.726,2.094q8.414,0,16.9-7.753l-1.87,32.592q-10.83,4.341-19.4,4.342A44.7,44.7,0,0,1-2277.313-2046.737Zm67.934,14.621v-119.7H-2149v28.142h-27.891v17.443h25.008v27.057h-25.008v18.3H-2149v28.762Zm-122.417,0-16.049-42.639a29.823,29.823,0,0,0-.818-2.869q-.584-1.783-1.442-4.267l.233,7.908v41.864H-2382.2v-119.7h33.265q21.969,0,32.877,8.605,13.867,11.008,13.867,31.32,0,21.708-18.619,30l24.151,49.771Zm-17.919-64.269h2.182a11.92,11.92,0,0,0,9.348-4.267,15.859,15.859,0,0,0,3.74-10.854q0-13.411-14.1-13.411h-1.169Zm-106.731,64.269v-119.7h60.378v28.142h-27.891v17.443h25.009v27.057h-25.009v18.3h27.891v28.762Zm-48.379,0-2.415-54.578-1.012-21.784q-.546,6.279-1.247,11.978t-1.714,11.048l-10.205,53.337h-26.489l-8.725-53.415q-.778-4.651-2.1-15.97-.156-1.706-.7-6.977l-.779,22.094-2.882,54.268h-34.591l14.024-119.7h40.434l6.781,40.313q.858,4.961,1.52,10.776t1.207,12.636a192.289,192.289,0,0,1,2.8-20.388l8.259-43.338h40.121l11.686,119.7Zm-137.379,0-3.427-76.362s-2.285,19.459-13.166,76.362h-26.489l-8.726-53.415q-.778-4.651-2.1-15.97-.155-1.706-.7-6.977l-.779,22.094-2.882,54.268h-34.6c-15-48.737-19.929-58.872-19.929-58.872s0,23.74,0,58.988h-30.668l.045-120H-2755c17.166,44.5,23,61.323,23,61.323V-2152h50.29l10.6,63.909,11.172-63.909h40.076l11.624,119.882Zm-189.8,0v-119.7h32.487v119.7Z" transform="translate(3243.001 2490)" fill="#fff" stroke="rgba(0,0,0,0)" stroke-miterlimit="10" stroke-width="1"/>
    <path id="Path_17" data-name="Path 17" d="M15.19-19.409H6.123v5.435h8.8v3.208h-8.8v7.559H15.19V0H2.71V-22.617H15.19ZM31-11.821l-6.226-10.8h3.882l4.321,7.661,4.541-7.661h3.911l-6.519,10.8L41.756,0H37.933l-5.01-8.657L27.767,0H23.9ZM54.816-9.185V0H51.4V-22.617H55.27a17.443,17.443,0,0,1,4.292.4,5.756,5.756,0,0,1,2.578,1.494,6.437,6.437,0,0,1,1.948,4.8A6.2,6.2,0,0,1,62.009-11,8.231,8.231,0,0,1,56.4-9.185Zm0-3.164h1.274q4.7,0,4.7-3.618,0-3.5-4.849-3.5H54.816Zm31.869-7.061H77.617v5.435h8.8v3.208h-8.8v7.559h9.067V0H74.2V-22.617h12.48Zm18.744,9.771,7,9.639h-4.175L101.8-9.258h-.615V0H97.767V-22.617h4q4.482,0,6.475,1.685a6.189,6.189,0,0,1,2.2,4.951,6.426,6.426,0,0,1-1.377,4.131A6.138,6.138,0,0,1,105.428-9.639Zm-4.248-2.593h1.084q4.849,0,4.849-3.706,0-3.472-4.717-3.472H101.18Zm24.662-10.386V0h-3.413V-22.617Zm24.515,3.208h-9.067v5.435h8.8v3.208h-8.8v7.559h9.067V0h-12.48V-22.617h12.48ZM161.439,0V-24.155L177.933-6.9V-22.617h3.413V1.377L164.852-15.835V0Zm48.846-21.4v4.043a9.465,9.465,0,0,0-6.123-2.476,7.8,7.8,0,0,0-5.874,2.5,8.445,8.445,0,0,0-2.4,6.094,8.242,8.242,0,0,0,2.4,6.006,7.934,7.934,0,0,0,5.889,2.446,7.225,7.225,0,0,0,3.062-.586A8.829,8.829,0,0,0,208.7-4.16a17.227,17.227,0,0,0,1.589-1.2v4.116A12.328,12.328,0,0,1,204.133.41a11.351,11.351,0,0,1-8.276-3.384,11.219,11.219,0,0,1-3.413-8.232,11.614,11.614,0,0,1,2.856-7.705,11.373,11.373,0,0,1,9.1-4.146A11.547,11.547,0,0,1,210.285-21.4Zm23.387,1.992h-9.067v5.435h8.8v3.208h-8.8v7.559h9.067V0h-12.48V-22.617h12.48Z" transform="translate(859 489)" fill="#cc8d97"/>
  </g>
</svg>
